<svg id="grupo4" xmlns="http://www.w3.org/2000/svg" width="241.515" height="80" viewBox="0 0 241.515 80">
  <rect id="Ret창ngulo_38569" data-name="Ret창ngulo 38569" width="7.959" height="35.356" transform="translate(99.266 9.118)" fill="#015f4e"/>
  <path id="Caminho_23088" data-name="Caminho 23088" d="M123.2,47.664V12.307h23.674V18.99H131.16v7.4h13.98v6.684H131.16V47.664Z" transform="translate(-9.854 -3.188)" fill="#015f4e"/>
  <path id="Caminho_23089" data-name="Caminho 23089" d="M183.261,47.52h-7.55l-1.836-5.2a24.871,24.871,0,0,0-3.624-.689,33.527,33.527,0,0,0-3.954-.23,32.925,32.925,0,0,0-3.929.23,21.937,21.937,0,0,0-3.495.689l-1.886,5.2a37.466,37.466,0,0,1-7.807,0L162.7,12.572a62.821,62.821,0,0,1,7.143,0Zm-21.684-12.6a30.147,30.147,0,0,1,4.72-.357,31.141,31.141,0,0,1,4.77.357l-4.8-12.857Z" transform="translate(-11.394 -3.198)" fill="#015f4e"/>
  <path id="Caminho_23090" data-name="Caminho 23090" d="M206.244,18.377q-5.561,0-8.036,3.087t-2.474,8.444a16.96,16.96,0,0,0,.612,4.72,10.377,10.377,0,0,0,1.836,3.648,8.259,8.259,0,0,0,3.062,2.373,10.181,10.181,0,0,0,4.285.842q1.325,0,2.27-.051a10.69,10.69,0,0,0,1.659-.205v-12.3h7.96v17.5a30,30,0,0,1-4.592,1.2,40.339,40.339,0,0,1-7.806.638,20.284,20.284,0,0,1-7.22-1.225,15.084,15.084,0,0,1-5.535-3.571,15.918,15.918,0,0,1-3.547-5.766,22.614,22.614,0,0,1-1.25-7.806,20.9,20.9,0,0,1,1.377-7.857,16.93,16.93,0,0,1,3.777-5.79,15.877,15.877,0,0,1,5.637-3.6,19.38,19.38,0,0,1,6.913-1.225,27.972,27.972,0,0,1,4.516.332,28.35,28.35,0,0,1,3.469.766,16.159,16.159,0,0,1,2.4.892q.943.46,1.352.715l-2.294,6.377a20.9,20.9,0,0,0-3.75-1.505,16.013,16.013,0,0,0-4.62-.638" transform="translate(-13.663 -3.137)" fill="#015f4e"/>
  <rect id="Ret창ngulo_38570" data-name="Ret창ngulo 38570" width="1.075" height="7.677" transform="translate(99.162 51.521)" fill="#015f4e"/>
  <path id="Caminho_23091" data-name="Caminho 23091" d="M110.748,59.577q.354-.089.942-.188a8.121,8.121,0,0,1,1.352-.1,2.9,2.9,0,0,1,1.14.194,1.779,1.779,0,0,1,.726.542,2.1,2.1,0,0,1,.382.837,4.826,4.826,0,0,1,.111,1.074v3.235h-1.03V62.159a4.921,4.921,0,0,0-.072-.909,1.534,1.534,0,0,0-.238-.61.952.952,0,0,0-.443-.338,1.983,1.983,0,0,0-.687-.1c-.111,0-.226,0-.343.011s-.231.018-.338.028-.2.023-.288.039l-.183.033v4.864h-1.03v-5.6Z" transform="translate(-9.116 -5.973)" fill="#015f4e"/>
  <path id="Caminho_23092" data-name="Caminho 23092" d="M118.349,64.428a2.023,2.023,0,0,0,.936-.167.562.562,0,0,0,.3-.532.706.706,0,0,0-.3-.6,4.77,4.77,0,0,0-.986-.5c-.222-.088-.434-.178-.637-.271a2.235,2.235,0,0,1-.527-.327,1.434,1.434,0,0,1-.355-.453,1.612,1.612,0,0,1,.433-1.866,2.41,2.41,0,0,1,1.54-.45,4.469,4.469,0,0,1,.487.028c.162.018.314.04.454.066s.263.054.372.084.19.055.248.077l-.188.885a2.563,2.563,0,0,0-.52-.182,3.352,3.352,0,0,0-.853-.1,1.574,1.574,0,0,0-.754.172.569.569,0,0,0-.322.537.738.738,0,0,0,.072.333.77.77,0,0,0,.221.26,1.775,1.775,0,0,0,.372.215c.148.067.326.137.532.211.273.1.517.206.732.3a2.231,2.231,0,0,1,.548.349,1.332,1.332,0,0,1,.349.482,1.734,1.734,0,0,1,.122.692,1.375,1.375,0,0,1-.593,1.208,2.955,2.955,0,0,1-1.69.409,4.415,4.415,0,0,1-1.2-.127,5.838,5.838,0,0,1-.588-.195l.188-.886q.178.068.565.2a3.233,3.233,0,0,0,1.03.134" transform="translate(-9.461 -5.971)" fill="#015f4e"/>
  <path id="Caminho_23093" data-name="Caminho 23093" d="M122.777,59.306h2.183v.864h-2.183v2.659a3.209,3.209,0,0,0,.066.715,1.077,1.077,0,0,0,.2.443.721.721,0,0,0,.332.227,1.472,1.472,0,0,0,.465.067,2.2,2.2,0,0,0,.748-.105c.188-.071.32-.12.393-.15l.2.852a3.824,3.824,0,0,1-.543.195,3.106,3.106,0,0,1-.887.116,2.685,2.685,0,0,1-.969-.15,1.4,1.4,0,0,1-.614-.448,1.8,1.8,0,0,1-.327-.738,4.836,4.836,0,0,1-.094-1.013V57.7l1.03-.178Z" transform="translate(-9.768 -5.868)" fill="#015f4e"/>
  <path id="Caminho_23094" data-name="Caminho 23094" d="M126.58,58.226a.655.655,0,0,1-.47-.182.647.647,0,0,1-.195-.493.639.639,0,0,1,.195-.492.7.7,0,0,1,.942,0,.725.725,0,0,1,0,.985.665.665,0,0,1-.471.182m.52,6.8h-1.03V59.267h1.03Z" transform="translate(-10.015 -5.83)" fill="#015f4e"/>
  <path id="Caminho_23095" data-name="Caminho 23095" d="M129.548,59.306h2.183v.864h-2.183v2.659a3.208,3.208,0,0,0,.066.715,1.065,1.065,0,0,0,.2.443.717.717,0,0,0,.332.227,1.472,1.472,0,0,0,.465.067,2.2,2.2,0,0,0,.748-.105q.284-.106.393-.15l.2.852a3.71,3.71,0,0,1-.542.195,3.1,3.1,0,0,1-.886.116,2.683,2.683,0,0,1-.97-.15,1.409,1.409,0,0,1-.615-.448,1.8,1.8,0,0,1-.326-.738,4.835,4.835,0,0,1-.094-1.013V57.7l1.03-.178Z" transform="translate(-10.169 -5.868)" fill="#015f4e"/>
  <path id="Caminho_23096" data-name="Caminho 23096" d="M137.434,65.012q-.354.089-.937.188a8.1,8.1,0,0,1-1.345.1,2.838,2.838,0,0,1-1.119-.194,1.8,1.8,0,0,1-.731-.548,2.234,2.234,0,0,1-.4-.836,4.324,4.324,0,0,1-.122-1.069V59.417h1.031V62.43a2.61,2.61,0,0,0,.332,1.507,1.3,1.3,0,0,0,1.119.453c.11,0,.224,0,.342-.01s.229-.018.333-.028.2-.021.281-.033a.825.825,0,0,0,.183-.039V59.417h1.03Z" transform="translate(-10.422 -5.98)" fill="#015f4e"/>
  <path id="Caminho_23097" data-name="Caminho 23097" d="M140.1,59.306h2.182v.864H140.1v2.659a3.214,3.214,0,0,0,.065.715,1.076,1.076,0,0,0,.2.443.729.729,0,0,0,.333.227,1.472,1.472,0,0,0,.465.067,2.2,2.2,0,0,0,.748-.105c.188-.071.32-.12.393-.15l.2.852a3.8,3.8,0,0,1-.542.195,3.106,3.106,0,0,1-.887.116,2.672,2.672,0,0,1-.968-.15,1.4,1.4,0,0,1-.615-.448,1.809,1.809,0,0,1-.327-.738,4.894,4.894,0,0,1-.1-1.013V57.7l1.032-.178Z" transform="translate(-10.794 -5.868)" fill="#015f4e"/>
  <path id="Caminho_23098" data-name="Caminho 23098" d="M148.469,62.288a3.624,3.624,0,0,1-.2,1.241,2.844,2.844,0,0,1-.56.953,2.448,2.448,0,0,1-.859.614,2.829,2.829,0,0,1-2.17,0,2.465,2.465,0,0,1-.858-.614,2.852,2.852,0,0,1-.56-.953,3.942,3.942,0,0,1,0-2.476,2.864,2.864,0,0,1,.56-.96,2.463,2.463,0,0,1,.858-.613,2.829,2.829,0,0,1,2.17,0,2.457,2.457,0,0,1,.859.613,2.829,2.829,0,0,1,.56.96,3.668,3.668,0,0,1,.2,1.235m-1.076,0a2.483,2.483,0,0,0-.437-1.546,1.529,1.529,0,0,0-2.384,0,2.956,2.956,0,0,0,0,3.092,1.533,1.533,0,0,0,2.384,0,2.482,2.482,0,0,0,.437-1.547" transform="translate(-11.031 -5.971)" fill="#015f4e"/>
  <path id="Caminho_23099" data-name="Caminho 23099" d="M157.2,62.3a4.078,4.078,0,0,1-.172,1.207,2.731,2.731,0,0,1-.5.953,2.284,2.284,0,0,1-.814.62,2.613,2.613,0,0,1-1.1.221,2.688,2.688,0,0,1-.882-.133,2.82,2.82,0,0,1-.57-.255v2.3h-1.03V59.587c.244-.059.547-.124.914-.194a6.828,6.828,0,0,1,1.268-.1,3.21,3.21,0,0,1,1.2.211,2.59,2.59,0,0,1,.909.6,2.637,2.637,0,0,1,.581.947A3.635,3.635,0,0,1,157.2,62.3m-1.075,0a2.208,2.208,0,0,0-.5-1.55,1.717,1.717,0,0,0-1.328-.544,5.974,5.974,0,0,0-.726.034,2.738,2.738,0,0,0-.415.077v3.634a2.13,2.13,0,0,0,.543.3,2.027,2.027,0,0,0,.775.144,1.663,1.663,0,0,0,.76-.161,1.424,1.424,0,0,0,.516-.443,1.887,1.887,0,0,0,.287-.665,3.682,3.682,0,0,0,.087-.824" transform="translate(-11.568 -5.973)" fill="#015f4e"/>
  <path id="Caminho_23100" data-name="Caminho 23100" d="M160.429,59.265a3,3,0,0,1,1.047.161,1.69,1.69,0,0,1,.686.454,1.741,1.741,0,0,1,.372.7,3.342,3.342,0,0,1,.111.89v3.6c-.088.016-.213.035-.372.061s-.338.05-.536.072-.416.042-.648.06-.464.027-.692.027a3.759,3.759,0,0,1-.9-.1,1.983,1.983,0,0,1-.71-.315,1.425,1.425,0,0,1-.465-.57,2.006,2.006,0,0,1-.167-.853,1.645,1.645,0,0,1,.194-.819,1.557,1.557,0,0,1,.527-.554,2.431,2.431,0,0,1,.774-.309,4.222,4.222,0,0,1,.93-.1c.1,0,.212.007.323.017s.215.026.315.044l.26.05c.074.016.126.026.156.034v-.288a2.385,2.385,0,0,0-.055-.5,1.147,1.147,0,0,0-.2-.443,1,1,0,0,0-.392-.31,1.555,1.555,0,0,0-.648-.117,4.774,4.774,0,0,0-.892.072,3.094,3.094,0,0,0-.57.15l-.121-.853a3.206,3.206,0,0,1,.664-.172,5.814,5.814,0,0,1,1.008-.083m.088,5.163c.245,0,.46-.006.648-.017a2.906,2.906,0,0,0,.471-.061V62.633a1.362,1.362,0,0,0-.36-.094,4.216,4.216,0,0,0-1.1-.006,1.511,1.511,0,0,0-.477.137,1.029,1.029,0,0,0-.359.289.754.754,0,0,0-.144.483.822.822,0,0,0,.355.769,1.836,1.836,0,0,0,.963.217" transform="translate(-11.926 -5.971)" fill="#015f4e"/>
  <path id="Caminho_23101" data-name="Caminho 23101" d="M166.4,59.288c.088,0,.19.007.3.018s.227.025.337.044.214.037.3.055a1.824,1.824,0,0,1,.205.05l-.177.9a3.508,3.508,0,0,0-.4-.1,3.568,3.568,0,0,0-.726-.061,2.691,2.691,0,0,0-.569.061c-.188.04-.312.068-.372.083v4.841h-1.03V59.657a6.7,6.7,0,0,1,.909-.25,5.667,5.667,0,0,1,1.218-.119" transform="translate(-12.288 -5.973)" fill="#015f4e"/>
  <path id="Caminho_23102" data-name="Caminho 23102" d="M170.18,59.265a3,3,0,0,1,1.046.161,1.678,1.678,0,0,1,.686.454,1.72,1.72,0,0,1,.372.7,3.379,3.379,0,0,1,.111.89v3.6c-.088.016-.214.035-.373.061s-.337.05-.536.072-.415.042-.648.06-.464.027-.691.027a3.754,3.754,0,0,1-.9-.1,1.99,1.99,0,0,1-.71-.315,1.417,1.417,0,0,1-.465-.57,2.006,2.006,0,0,1-.167-.853,1.645,1.645,0,0,1,.194-.819,1.549,1.549,0,0,1,.527-.554,2.413,2.413,0,0,1,.774-.309,4.221,4.221,0,0,1,.93-.1c.1,0,.212.007.322.017s.216.026.316.044l.26.05c.074.016.126.026.155.034v-.288a2.329,2.329,0,0,0-.055-.5,1.132,1.132,0,0,0-.2-.443,1,1,0,0,0-.393-.31,1.549,1.549,0,0,0-.647-.117,4.792,4.792,0,0,0-.893.072,3.078,3.078,0,0,0-.569.15l-.122-.853a3.236,3.236,0,0,1,.665-.172,5.807,5.807,0,0,1,1.008-.083m.089,5.163c.244,0,.458-.006.647-.017a2.879,2.879,0,0,0,.471-.061V62.633a1.344,1.344,0,0,0-.359-.094,4.215,4.215,0,0,0-1.1-.006,1.511,1.511,0,0,0-.477.137,1.032,1.032,0,0,0-.36.289.76.76,0,0,0-.144.483.823.823,0,0,0,.356.769,1.831,1.831,0,0,0,.963.217" transform="translate(-12.504 -5.971)" fill="#015f4e"/>
  <path id="Caminho_23103" data-name="Caminho 23103" d="M181.334,62.288a3.649,3.649,0,0,1-.2,1.241,2.86,2.86,0,0,1-.56.953,2.465,2.465,0,0,1-.859.614,2.831,2.831,0,0,1-2.171,0,2.485,2.485,0,0,1-.859-.614,2.85,2.85,0,0,1-.559-.953,3.942,3.942,0,0,1,0-2.476,2.863,2.863,0,0,1,.559-.96,2.493,2.493,0,0,1,.859-.613,2.832,2.832,0,0,1,2.171,0,2.466,2.466,0,0,1,.859.613,2.845,2.845,0,0,1,.56.96,3.694,3.694,0,0,1,.2,1.235m-1.074,0a2.477,2.477,0,0,0-.438-1.546,1.527,1.527,0,0,0-2.382,0,2.945,2.945,0,0,0,0,3.092,1.531,1.531,0,0,0,2.382,0,2.476,2.476,0,0,0,.438-1.547" transform="translate(-12.979 -5.971)" fill="#015f4e"/>
  <path id="Caminho_23104" data-name="Caminho 23104" d="M185.065,65.058V57.381H189.7V58.3h-3.555v2.316H189.3v.909h-3.156v3.534Z" transform="translate(-13.52 -5.86)" fill="#015f4e"/>
  <path id="Caminho_23105" data-name="Caminho 23105" d="M195.913,62.288a3.626,3.626,0,0,1-.2,1.241,2.86,2.86,0,0,1-.56.953,2.457,2.457,0,0,1-.859.614,2.829,2.829,0,0,1-2.17,0,2.477,2.477,0,0,1-.859-.614,2.85,2.85,0,0,1-.559-.953,3.942,3.942,0,0,1,0-2.476,2.862,2.862,0,0,1,.559-.96,2.475,2.475,0,0,1,.859-.613,2.829,2.829,0,0,1,2.17,0,2.457,2.457,0,0,1,.859.613,2.845,2.845,0,0,1,.56.96,3.646,3.646,0,0,1,.2,1.235m-1.075,0a2.483,2.483,0,0,0-.437-1.546,1.528,1.528,0,0,0-2.383,0,2.951,2.951,0,0,0,0,3.092,1.532,1.532,0,0,0,2.383,0,2.482,2.482,0,0,0,.437-1.547" transform="translate(-13.843 -5.971)" fill="#015f4e"/>
  <path id="Caminho_23106" data-name="Caminho 23106" d="M199.452,59.288c.088,0,.19.007.3.018s.228.025.337.044.214.037.3.055a1.827,1.827,0,0,1,.205.05l-.177.9a3.4,3.4,0,0,0-1.131-.166,2.691,2.691,0,0,0-.569.061c-.188.04-.312.068-.372.083v4.841h-1.03V59.657a6.7,6.7,0,0,1,.909-.25,5.677,5.677,0,0,1,1.219-.119" transform="translate(-14.247 -5.973)" fill="#015f4e"/>
  <path id="Caminho_23107" data-name="Caminho 23107" d="M202.359,59.306h2.182v.864h-2.182v2.659a3.2,3.2,0,0,0,.067.715,1.077,1.077,0,0,0,.2.443.717.717,0,0,0,.333.227,1.481,1.481,0,0,0,.465.067,2.2,2.2,0,0,0,.748-.105l.394-.15.2.852a3.73,3.73,0,0,1-.541.195,3.111,3.111,0,0,1-.887.116,2.685,2.685,0,0,1-.969-.15,1.4,1.4,0,0,1-.614-.448,1.822,1.822,0,0,1-.327-.738,4.9,4.9,0,0,1-.094-1.013V57.7l1.03-.178v1.784Z" transform="translate(-14.484 -5.868)" fill="#015f4e"/>
  <path id="Caminho_23108" data-name="Caminho 23108" d="M207.5,59.265a3,3,0,0,1,1.046.161,1.681,1.681,0,0,1,.687.454,1.727,1.727,0,0,1,.371.7,3.38,3.38,0,0,1,.111.89v3.6c-.088.016-.213.035-.371.061s-.339.05-.537.072-.415.042-.647.06-.464.027-.692.027a3.772,3.772,0,0,1-.9-.1,1.978,1.978,0,0,1-.709-.315,1.435,1.435,0,0,1-.466-.57,2.007,2.007,0,0,1-.166-.853,1.645,1.645,0,0,1,.194-.819,1.553,1.553,0,0,1,.526-.554,2.418,2.418,0,0,1,.775-.309,4.216,4.216,0,0,1,.93-.1c.1,0,.211.007.323.017s.215.026.315.044l.26.05c.074.016.126.026.155.034v-.288a2.326,2.326,0,0,0-.056-.5,1.118,1.118,0,0,0-.2-.443.992.992,0,0,0-.393-.31,1.544,1.544,0,0,0-.647-.117,4.766,4.766,0,0,0-.892.072,3.085,3.085,0,0,0-.571.15l-.121-.853a3.207,3.207,0,0,1,.664-.172,5.837,5.837,0,0,1,1.009-.083m.088,5.163q.365,0,.648-.017a2.908,2.908,0,0,0,.47-.061V62.633a1.342,1.342,0,0,0-.36-.094,3.943,3.943,0,0,0-.6-.039,3.99,3.99,0,0,0-.493.033,1.525,1.525,0,0,0-.477.137,1.058,1.058,0,0,0-.36.289.765.765,0,0,0-.143.483.822.822,0,0,0,.355.769,1.841,1.841,0,0,0,.964.217" transform="translate(-14.715 -5.971)" fill="#015f4e"/>
  <path id="Caminho_23109" data-name="Caminho 23109" d="M213.066,65.11a1.97,1.97,0,0,1-1.352-.41,1.62,1.62,0,0,1-.4-1.207V56.58l1.031-.177v6.924a1.679,1.679,0,0,0,.044.421.6.6,0,0,0,.143.265.615.615,0,0,0,.266.15,2.665,2.665,0,0,0,.411.083Z" transform="translate(-15.076 -5.802)" fill="#015f4e"/>
  <path id="Caminho_23110" data-name="Caminho 23110" d="M213.741,62.3a3.676,3.676,0,0,1,.221-1.335,2.785,2.785,0,0,1,.587-.947,2.385,2.385,0,0,1,.842-.566,2.624,2.624,0,0,1,.975-.188,2.221,2.221,0,0,1,1.785.725,3.348,3.348,0,0,1,.62,2.211v.172a1.742,1.742,0,0,1-.011.194h-3.944a2.1,2.1,0,0,0,.52,1.362,1.907,1.907,0,0,0,1.419.465,3.708,3.708,0,0,0,.913-.094,3.256,3.256,0,0,0,.561-.183l.143.864a3.032,3.032,0,0,1-.658.212,4.718,4.718,0,0,1-1.07.111,3.414,3.414,0,0,1-1.3-.227,2.427,2.427,0,0,1-.9-.627,2.542,2.542,0,0,1-.527-.947,4.022,4.022,0,0,1-.171-1.2m3.955-.565a1.731,1.731,0,0,0-.349-1.147,1.2,1.2,0,0,0-.992-.449,1.359,1.359,0,0,0-.626.138,1.478,1.478,0,0,0-.46.36,1.646,1.646,0,0,0-.294.51,2.5,2.5,0,0,0-.139.586H217.7Z" transform="translate(-15.22 -5.971)" fill="#015f4e"/>
  <path id="Caminho_23111" data-name="Caminho 23111" d="M222.678,65.3a3.161,3.161,0,0,1-1.226-.22,2.473,2.473,0,0,1-.885-.621,2.567,2.567,0,0,1-.536-.947,3.916,3.916,0,0,1-.178-1.213,3.678,3.678,0,0,1,.194-1.219,2.875,2.875,0,0,1,.548-.959,2.456,2.456,0,0,1,.87-.632,2.826,2.826,0,0,1,1.147-.227,4.512,4.512,0,0,1,.776.067,3.567,3.567,0,0,1,.742.211l-.233.876a2.447,2.447,0,0,0-.537-.178,3.039,3.039,0,0,0-.648-.066,1.636,1.636,0,0,0-1.323.543,2.392,2.392,0,0,0-.459,1.585,3.23,3.23,0,0,0,.1.852,1.757,1.757,0,0,0,.332.665,1.471,1.471,0,0,0,.582.425,2.219,2.219,0,0,0,.864.15,3.213,3.213,0,0,0,.742-.077,2.666,2.666,0,0,0,.521-.167l.144.865a1.078,1.078,0,0,1-.255.105c-.109.033-.236.061-.376.088s-.29.048-.449.066a4.157,4.157,0,0,1-.462.027" transform="translate(-15.582 -5.971)" fill="#015f4e"/>
  <path id="Caminho_23112" data-name="Caminho 23112" d="M225.7,58.226a.659.659,0,0,1-.471-.182.646.646,0,0,1-.194-.493.639.639,0,0,1,.194-.492.7.7,0,0,1,.942,0,.72.72,0,0,1,0,.985.659.659,0,0,1-.47.182m.52,6.8h-1.03V59.267h1.03Z" transform="translate(-15.889 -5.83)" fill="#015f4e"/>
  <path id="Caminho_23113" data-name="Caminho 23113" d="M227.708,59.577q.354-.089.935-.188a8.029,8.029,0,0,1,1.347-.1,2.559,2.559,0,0,1,.93.149,1.645,1.645,0,0,1,.631.438c.052-.037.133-.089.244-.155a2.639,2.639,0,0,1,.41-.194,4.424,4.424,0,0,1,.543-.167,2.748,2.748,0,0,1,.643-.071,2.6,2.6,0,0,1,1.085.194,1.555,1.555,0,0,1,.659.548,2.132,2.132,0,0,1,.321.842,6.225,6.225,0,0,1,.084,1.063v3.235H234.51V62.159a6.542,6.542,0,0,0-.05-.877,1.677,1.677,0,0,0-.188-.608.868.868,0,0,0-.376-.36,1.411,1.411,0,0,0-.614-.117,2.289,2.289,0,0,0-.859.138,1.71,1.71,0,0,0-.46.25,3.944,3.944,0,0,1,.135.631,5.883,5.883,0,0,1,.044.72v3.235H231.11V62.159a6.012,6.012,0,0,0-.056-.877,1.751,1.751,0,0,0-.194-.608.868.868,0,0,0-.376-.36,1.382,1.382,0,0,0-.6-.117c-.1,0-.215,0-.333.011s-.23.018-.337.028-.206.023-.294.039-.147.025-.177.033v4.864h-1.03v-5.6Z" transform="translate(-16.048 -5.973)" fill="#015f4e"/>
  <path id="Caminho_23114" data-name="Caminho 23114" d="M237.034,62.3a3.7,3.7,0,0,1,.221-1.335,2.771,2.771,0,0,1,.587-.947,2.38,2.38,0,0,1,.843-.566,2.621,2.621,0,0,1,.975-.188,2.222,2.222,0,0,1,1.784.725,3.337,3.337,0,0,1,.621,2.211v.172a1.54,1.54,0,0,1-.011.194h-3.944a2.1,2.1,0,0,0,.52,1.362,1.906,1.906,0,0,0,1.42.465,3.724,3.724,0,0,0,.913-.094,3.2,3.2,0,0,0,.559-.183l.145.864a3.065,3.065,0,0,1-.659.212,4.66,4.66,0,0,1-1.07.111,3.414,3.414,0,0,1-1.3-.227,2.419,2.419,0,0,1-.9-.627,2.542,2.542,0,0,1-.527-.947,3.994,3.994,0,0,1-.172-1.2m3.956-.565a1.737,1.737,0,0,0-.35-1.147,1.2,1.2,0,0,0-.992-.449,1.358,1.358,0,0,0-.626.138,1.482,1.482,0,0,0-.459.36,1.668,1.668,0,0,0-.294.51,2.492,2.492,0,0,0-.137.586h2.859Z" transform="translate(-16.6 -5.971)" fill="#015f4e"/>
  <path id="Caminho_23115" data-name="Caminho 23115" d="M243.487,59.577q.354-.089.942-.188a8.133,8.133,0,0,1,1.353-.1,2.912,2.912,0,0,1,1.141.194,1.776,1.776,0,0,1,.725.542,2.1,2.1,0,0,1,.383.837,4.883,4.883,0,0,1,.11,1.074v3.235H247.11V62.159a4.85,4.85,0,0,0-.071-.909,1.562,1.562,0,0,0-.238-.61.941.941,0,0,0-.444-.338,1.973,1.973,0,0,0-.686-.1c-.111,0-.225,0-.343.011s-.23.018-.338.028-.2.023-.288.039-.147.025-.183.033v4.864h-1.031v-5.6Z" transform="translate(-16.983 -5.973)" fill="#015f4e"/>
  <path id="Caminho_23116" data-name="Caminho 23116" d="M250.736,59.306h2.182v.864h-2.182v2.659a3.209,3.209,0,0,0,.066.715,1.076,1.076,0,0,0,.2.443.729.729,0,0,0,.333.227,1.472,1.472,0,0,0,.465.067,2.2,2.2,0,0,0,.748-.105l.394-.15.2.852a3.756,3.756,0,0,1-.542.195,3.111,3.111,0,0,1-.887.116,2.676,2.676,0,0,1-.968-.15,1.4,1.4,0,0,1-.615-.448,1.821,1.821,0,0,1-.327-.738,4.892,4.892,0,0,1-.1-1.013V57.7l1.032-.178Z" transform="translate(-17.351 -5.868)" fill="#015f4e"/>
  <path id="Caminho_23117" data-name="Caminho 23117" d="M259.1,62.288a3.626,3.626,0,0,1-.2,1.241,2.859,2.859,0,0,1-.56.953,2.456,2.456,0,0,1-.859.614,2.829,2.829,0,0,1-2.17,0,2.468,2.468,0,0,1-.859-.614,2.832,2.832,0,0,1-.559-.953,3.942,3.942,0,0,1,0-2.476,2.846,2.846,0,0,1,.559-.96,2.475,2.475,0,0,1,.859-.613,2.829,2.829,0,0,1,2.17,0,2.457,2.457,0,0,1,.859.613,2.844,2.844,0,0,1,.56.96,3.646,3.646,0,0,1,.2,1.235m-1.073,0a2.483,2.483,0,0,0-.437-1.546,1.528,1.528,0,0,0-2.383,0,2.951,2.951,0,0,0,0,3.092,1.532,1.532,0,0,0,2.383,0,2.488,2.488,0,0,0,.437-1.547" transform="translate(-17.588 -5.971)" fill="#015f4e"/>
  <path id="Caminho_23118" data-name="Caminho 23118" d="M111.753,69.467l1.03-.177v8.43c-.236.066-.539.134-.909.2a7.313,7.313,0,0,1-1.274.1,3.232,3.232,0,0,1-1.2-.21,2.555,2.555,0,0,1-.908-.6,2.635,2.635,0,0,1-.582-.948,3.64,3.64,0,0,1-.2-1.258,4.1,4.1,0,0,1,.171-1.218,2.763,2.763,0,0,1,.5-.953,2.305,2.305,0,0,1,.814-.621,2.916,2.916,0,0,1,1.984-.087,2.725,2.725,0,0,1,.57.254Zm0,3.878a2.113,2.113,0,0,0-.543-.3,2.044,2.044,0,0,0-.775-.143,1.654,1.654,0,0,0-.759.161,1.392,1.392,0,0,0-.516.443,1.866,1.866,0,0,0-.288.67,3.718,3.718,0,0,0-.088.831,2.232,2.232,0,0,0,.5,1.557,1.708,1.708,0,0,0,1.329.548,5.227,5.227,0,0,0,.7-.04,3.209,3.209,0,0,0,.437-.082Z" transform="translate(-8.936 -6.566)" fill="#015f4e"/>
  <path id="Caminho_23119" data-name="Caminho 23119" d="M116.351,72.151a3.011,3.011,0,0,1,1.047.16,1.7,1.7,0,0,1,.687.454,1.735,1.735,0,0,1,.372.7,3.386,3.386,0,0,1,.11.89v3.6c-.088.016-.212.035-.371.061s-.338.05-.538.072-.415.042-.648.059-.463.028-.691.028a3.771,3.771,0,0,1-.9-.1,1.978,1.978,0,0,1-.709-.315,1.438,1.438,0,0,1-.466-.569,2.009,2.009,0,0,1-.166-.853,1.648,1.648,0,0,1,.194-.82,1.554,1.554,0,0,1,.526-.554,2.455,2.455,0,0,1,.776-.31,4.2,4.2,0,0,1,.93-.1c.1,0,.21.006.321.016s.216.026.316.044l.26.051c.074.015.126.025.155.033v-.288a2.332,2.332,0,0,0-.055-.5,1.16,1.16,0,0,0-.2-.443,1.017,1.017,0,0,0-.394-.31,1.545,1.545,0,0,0-.647-.116,4.794,4.794,0,0,0-.892.072,3.226,3.226,0,0,0-.571.149l-.121-.852a3.208,3.208,0,0,1,.664-.172,5.926,5.926,0,0,1,1.008-.082m.088,5.163q.365,0,.648-.018a2.7,2.7,0,0,0,.47-.06V75.518a1.343,1.343,0,0,0-.359-.094,4.079,4.079,0,0,0-.6-.039,3.99,3.99,0,0,0-.493.033,1.488,1.488,0,0,0-.476.138,1.024,1.024,0,0,0-.361.288.765.765,0,0,0-.143.483.824.824,0,0,0,.355.77,1.834,1.834,0,0,0,.963.217" transform="translate(-9.313 -6.735)" fill="#015f4e"/>
  <path id="Caminho_23120" data-name="Caminho 23120" d="M127.585,77.944c-.126-.333-.244-.659-.354-.98s-.226-.648-.344-.98H123.41l-.7,1.96h-1.119q.442-1.218.83-2.254t.76-1.966q.37-.931.737-1.778t.764-1.678h.986q.4.83.765,1.678t.737,1.778q.371.93.759,1.966t.831,2.254ZM126.579,75.1q-.356-.964-.7-1.866T125.15,71.5q-.388.83-.737,1.734T123.72,75.1Z" transform="translate(-9.759 -6.624)" fill="#015f4e"/>
  <path id="Caminho_23121" data-name="Caminho 23121" d="M133.369,77.481a2.674,2.674,0,0,1-.516.227,2.6,2.6,0,0,1-.892.138,2.879,2.879,0,0,1-.98-.167,2.11,2.11,0,0,1-.8-.516,2.474,2.474,0,0,1-.544-.869,3.477,3.477,0,0,1-.2-1.241,3.4,3.4,0,0,1,.188-1.157,2.561,2.561,0,0,1,.548-.909,2.516,2.516,0,0,1,.881-.6,3.032,3.032,0,0,1,1.173-.215,6.657,6.657,0,0,1,1.258.1c.358.071.659.136.9.194v5.14a2.434,2.434,0,0,1-.687,1.929,3.1,3.1,0,0,1-2.083.6,5.651,5.651,0,0,1-1.024-.088,5.8,5.8,0,0,1-.836-.212l.188-.9a4.877,4.877,0,0,0,.759.215,4.584,4.584,0,0,0,.936.094,1.953,1.953,0,0,0,1.324-.365,1.5,1.5,0,0,0,.4-1.164v-.243Zm-.011-4.276a3.632,3.632,0,0,0-.415-.083,4.957,4.957,0,0,0-.7-.039,1.561,1.561,0,0,0-1.279.543,2.183,2.183,0,0,0-.45,1.439,2.529,2.529,0,0,0,.128.852,1.686,1.686,0,0,0,.343.588,1.36,1.36,0,0,0,.5.343,1.578,1.578,0,0,0,.58.11,2.35,2.35,0,0,0,.754-.116,1.855,1.855,0,0,0,.543-.272Z" transform="translate(-10.223 -6.737)" fill="#015f4e"/>
  <path id="Caminho_23122" data-name="Caminho 23122" d="M138.24,72.175a2.877,2.877,0,0,1,.3.017c.114.011.227.025.337.044s.214.037.3.056a1.868,1.868,0,0,1,.205.049l-.177.9a3.643,3.643,0,0,0-.4-.1,3.567,3.567,0,0,0-.726-.06,2.687,2.687,0,0,0-.569.06c-.188.04-.313.068-.373.084v4.841h-1.03V72.543a6.813,6.813,0,0,1,.909-.249,5.682,5.682,0,0,1,1.219-.119" transform="translate(-10.619 -6.737)" fill="#015f4e"/>
  <path id="Caminho_23123" data-name="Caminho 23123" d="M145.253,75.175a3.646,3.646,0,0,1-.2,1.241,2.874,2.874,0,0,1-.56.953,2.47,2.47,0,0,1-.859.614,2.832,2.832,0,0,1-2.171,0,2.436,2.436,0,0,1-.859-.614,2.833,2.833,0,0,1-.56-.953,3.96,3.96,0,0,1,0-2.476,2.85,2.85,0,0,1,.56-.959,2.456,2.456,0,0,1,.859-.614,2.843,2.843,0,0,1,2.171,0,2.486,2.486,0,0,1,.859.614,2.863,2.863,0,0,1,.56.959,3.693,3.693,0,0,1,.2,1.235m-1.075,0a2.48,2.48,0,0,0-.438-1.546,1.532,1.532,0,0,0-2.383,0,2.951,2.951,0,0,0,0,3.092,1.53,1.53,0,0,0,2.383,0,2.476,2.476,0,0,0,.438-1.547" transform="translate(-10.84 -6.735)" fill="#015f4e"/>
  <path id="Caminho_23124" data-name="Caminho 23124" d="M151.738,75.188a4.059,4.059,0,0,1-.171,1.208,2.751,2.751,0,0,1-.5.952,2.281,2.281,0,0,1-.815.621,2.606,2.606,0,0,1-1.1.221,2.688,2.688,0,0,1-.881-.134,2.767,2.767,0,0,1-.57-.255v2.3h-1.03V72.473q.365-.089.914-.194a6.743,6.743,0,0,1,1.268-.105,3.249,3.249,0,0,1,1.2.21,2.559,2.559,0,0,1,.908.6,2.652,2.652,0,0,1,.582.947,3.668,3.668,0,0,1,.2,1.258m-1.074,0a2.211,2.211,0,0,0-.5-1.55,1.714,1.714,0,0,0-1.329-.543,6.2,6.2,0,0,0-.725.033,2.885,2.885,0,0,0-.415.077v3.634a2.112,2.112,0,0,0,.543.3,2.038,2.038,0,0,0,.775.143,1.671,1.671,0,0,0,.759-.161,1.386,1.386,0,0,0,.516-.444,1.869,1.869,0,0,0,.288-.664,3.681,3.681,0,0,0,.087-.824" transform="translate(-11.245 -6.737)" fill="#015f4e"/>
  <path id="Caminho_23125" data-name="Caminho 23125" d="M152.787,75.187a3.683,3.683,0,0,1,.222-1.336,2.8,2.8,0,0,1,.588-.947,2.394,2.394,0,0,1,.841-.564,2.628,2.628,0,0,1,.975-.188,2.216,2.216,0,0,1,1.784.725,3.345,3.345,0,0,1,.62,2.212v.171a1.534,1.534,0,0,1-.01.194h-3.944a2.1,2.1,0,0,0,.521,1.363,1.907,1.907,0,0,0,1.418.465,3.71,3.71,0,0,0,.913-.1,3.327,3.327,0,0,0,.561-.182l.144.864a3.115,3.115,0,0,1-.659.211,4.719,4.719,0,0,1-1.07.111,3.384,3.384,0,0,1-1.3-.228,2.4,2.4,0,0,1-.9-.626,2.57,2.57,0,0,1-.528-.947,4.058,4.058,0,0,1-.171-1.2m3.956-.565a1.728,1.728,0,0,0-.35-1.147,1.2,1.2,0,0,0-.991-.45,1.36,1.36,0,0,0-.627.138,1.483,1.483,0,0,0-.459.36,1.656,1.656,0,0,0-.294.509,2.58,2.58,0,0,0-.138.588h2.859Z" transform="translate(-11.607 -6.735)" fill="#015f4e"/>
  <path id="Caminho_23126" data-name="Caminho 23126" d="M161.725,78.188a3.139,3.139,0,0,1-1.225-.22,2.465,2.465,0,0,1-.886-.621,2.558,2.558,0,0,1-.535-.947,3.915,3.915,0,0,1-.178-1.213,3.673,3.673,0,0,1,.194-1.218,2.865,2.865,0,0,1,.548-.96,2.45,2.45,0,0,1,.869-.631,2.813,2.813,0,0,1,1.147-.227,4.59,4.59,0,0,1,.776.066,3.535,3.535,0,0,1,.742.212l-.233.875a2.432,2.432,0,0,0-.537-.177,2.971,2.971,0,0,0-.647-.066,1.64,1.64,0,0,0-1.324.542,2.394,2.394,0,0,0-.459,1.585,3.236,3.236,0,0,0,.1.853,1.767,1.767,0,0,0,.333.664,1.458,1.458,0,0,0,.581.425,2.2,2.2,0,0,0,.864.151,3.2,3.2,0,0,0,.742-.078,2.676,2.676,0,0,0,.522-.167l.143.865a1.061,1.061,0,0,1-.255.105,3.7,3.7,0,0,1-.377.088c-.139.026-.289.048-.448.067a3.932,3.932,0,0,1-.462.026" transform="translate(-11.97 -6.735)" fill="#015f4e"/>
  <path id="Caminho_23127" data-name="Caminho 23127" d="M168.829,77.9c-.237.059-.548.122-.936.188a8.124,8.124,0,0,1-1.347.1,2.819,2.819,0,0,1-1.118-.195,1.8,1.8,0,0,1-.732-.548,2.229,2.229,0,0,1-.4-.837,4.324,4.324,0,0,1-.122-1.069V72.3h1.03v3.013a2.615,2.615,0,0,0,.333,1.508,1.3,1.3,0,0,0,1.119.453c.111,0,.225,0,.343-.011s.229-.018.332-.027.2-.022.283-.034a.763.763,0,0,0,.182-.039V72.3h1.031v5.6Z" transform="translate(-12.282 -6.744)" fill="#015f4e"/>
  <path id="Caminho_23128" data-name="Caminho 23128" d="M172.371,71.98a2.972,2.972,0,0,1,1.045.162,1.673,1.673,0,0,1,.687.453,1.73,1.73,0,0,1,.372.7,3.386,3.386,0,0,1,.111.891v3.6l-.372.06q-.238.039-.536.071c-.2.022-.416.042-.648.06s-.464.028-.691.028a3.816,3.816,0,0,1-.9-.1,2.011,2.011,0,0,1-.709-.315,1.437,1.437,0,0,1-.466-.571,2,2,0,0,1-.166-.852,1.638,1.638,0,0,1,.194-.82,1.561,1.561,0,0,1,.526-.554,2.441,2.441,0,0,1,.775-.31,4.267,4.267,0,0,1,.93-.1c.1,0,.212.006.322.016s.215.026.316.044l.26.051c.073.015.126.025.155.033V74.24a2.381,2.381,0,0,0-.056-.5,1.146,1.146,0,0,0-.2-.443,1.01,1.01,0,0,0-.392-.31,1.554,1.554,0,0,0-.648-.117,4.862,4.862,0,0,0-.892.072,3.1,3.1,0,0,0-.57.15l-.121-.853a3.144,3.144,0,0,1,.665-.172,5.793,5.793,0,0,1,1.008-.083m.087,5.164q.365,0,.647-.017a2.906,2.906,0,0,0,.471-.061V75.348a1.391,1.391,0,0,0-.36-.094,4.077,4.077,0,0,0-.6-.039,3.989,3.989,0,0,0-.493.033,1.525,1.525,0,0,0-.477.138,1.017,1.017,0,0,0-.359.289.749.749,0,0,0-.145.481.826.826,0,0,0,.356.77,1.842,1.842,0,0,0,.964.217m1.418-7.2-1.562,1.518-.521-.466,1.419-1.706Z" transform="translate(-12.633 -6.566)" fill="#015f4e"/>
  <path id="Caminho_23129" data-name="Caminho 23129" d="M178.338,72.175a2.878,2.878,0,0,1,.3.017c.114.011.228.025.337.044s.214.037.3.056a1.867,1.867,0,0,1,.205.049l-.177.9a3.378,3.378,0,0,0-1.131-.165,2.688,2.688,0,0,0-.569.06c-.188.04-.312.068-.373.084v4.841h-1.03V72.543a6.851,6.851,0,0,1,.909-.249,5.676,5.676,0,0,1,1.219-.119" transform="translate(-12.996 -6.737)" fill="#015f4e"/>
  <path id="Caminho_23130" data-name="Caminho 23130" d="M180.785,71.112a.664.664,0,0,1-.471-.182.723.723,0,0,1,0-.985.7.7,0,0,1,.943,0,.723.723,0,0,1,0,.985.666.666,0,0,1-.471.182m.52,6.8h-1.03V72.153h1.03Z" transform="translate(-13.227 -6.594)" fill="#015f4e"/>
  <path id="Caminho_23131" data-name="Caminho 23131" d="M184.629,72.151a3.006,3.006,0,0,1,1.046.16,1.687,1.687,0,0,1,.686.454,1.749,1.749,0,0,1,.373.7,3.427,3.427,0,0,1,.11.89v3.6c-.088.016-.213.035-.372.061s-.338.05-.537.072-.414.042-.647.059-.464.028-.691.028a3.77,3.77,0,0,1-.9-.1,1.978,1.978,0,0,1-.709-.315,1.43,1.43,0,0,1-.466-.569,2.009,2.009,0,0,1-.166-.853,1.648,1.648,0,0,1,.194-.82,1.546,1.546,0,0,1,.526-.554,2.44,2.44,0,0,1,.775-.31,4.216,4.216,0,0,1,.93-.1c.1,0,.211.006.322.016s.215.026.316.044l.26.051c.074.015.126.025.155.033v-.288a2.336,2.336,0,0,0-.056-.5,1.119,1.119,0,0,0-.2-.443,1.007,1.007,0,0,0-.393-.31,1.548,1.548,0,0,0-.647-.116,4.79,4.79,0,0,0-.893.072,3.188,3.188,0,0,0-.57.149l-.122-.852a3.255,3.255,0,0,1,.665-.172,5.954,5.954,0,0,1,1.009-.082m.088,5.163c.244,0,.459-.006.648-.018a2.719,2.719,0,0,0,.47-.06V75.518a1.342,1.342,0,0,0-.36-.094,4.215,4.215,0,0,0-1.1-.006,1.5,1.5,0,0,0-.477.138,1.046,1.046,0,0,0-.36.288.765.765,0,0,0-.144.483.823.823,0,0,0,.356.77,1.838,1.838,0,0,0,.963.217" transform="translate(-13.36 -6.735)" fill="#015f4e"/>
  <path id="Caminho_23132" data-name="Caminho 23132" d="M194.421,69.467l1.03-.177v8.43c-.237.066-.539.134-.909.2a7.321,7.321,0,0,1-1.274.1,3.225,3.225,0,0,1-1.2-.21,2.547,2.547,0,0,1-.908-.6,2.635,2.635,0,0,1-.582-.948A3.641,3.641,0,0,1,190.377,75a4.1,4.1,0,0,1,.172-1.218,2.746,2.746,0,0,1,.5-.953,2.3,2.3,0,0,1,.816-.621,2.617,2.617,0,0,1,1.1-.22,2.653,2.653,0,0,1,.881.134,2.737,2.737,0,0,1,.571.254Zm0,3.878a2.122,2.122,0,0,0-.544-.3,2.038,2.038,0,0,0-.775-.143,1.662,1.662,0,0,0-.759.161,1.4,1.4,0,0,0-.515.443,1.866,1.866,0,0,0-.288.67,3.717,3.717,0,0,0-.089.831,2.227,2.227,0,0,0,.5,1.557,1.707,1.707,0,0,0,1.329.548,5.211,5.211,0,0,0,.7-.04,3.256,3.256,0,0,0,.438-.082V73.345Z" transform="translate(-13.835 -6.566)" fill="#015f4e"/>
  <path id="Caminho_23133" data-name="Caminho 23133" d="M196.842,75.187a3.684,3.684,0,0,1,.222-1.336,2.812,2.812,0,0,1,.587-.947,2.4,2.4,0,0,1,.842-.564,2.625,2.625,0,0,1,.975-.188,2.218,2.218,0,0,1,1.784.725,3.345,3.345,0,0,1,.62,2.212v.171a1.524,1.524,0,0,1-.011.194h-3.943a2.1,2.1,0,0,0,.52,1.363,1.911,1.911,0,0,0,1.419.465,3.715,3.715,0,0,0,.913-.1A3.354,3.354,0,0,0,201.33,77l.143.864a3.078,3.078,0,0,1-.659.211,4.71,4.71,0,0,1-1.069.111,3.389,3.389,0,0,1-1.3-.228,2.407,2.407,0,0,1-.9-.626,2.543,2.543,0,0,1-.527-.947,4,4,0,0,1-.172-1.2m3.956-.565a1.733,1.733,0,0,0-.35-1.147,1.2,1.2,0,0,0-.992-.45,1.359,1.359,0,0,0-.626.138,1.472,1.472,0,0,0-.459.36,1.654,1.654,0,0,0-.294.509,2.58,2.58,0,0,0-.138.588H200.8Z" transform="translate(-14.218 -6.735)" fill="#015f4e"/>
  <path id="Caminho_23134" data-name="Caminho 23134" d="M210.282,74.155h1.075v3.589c-.089.029-.216.062-.382.1s-.358.074-.577.111-.455.069-.715.094a7.719,7.719,0,0,1-.786.04,3.955,3.955,0,0,1-1.472-.265,3.138,3.138,0,0,1-1.14-.775,3.473,3.473,0,0,1-.738-1.252,5.133,5.133,0,0,1-.261-1.706,4.63,4.63,0,0,1,.294-1.711,3.686,3.686,0,0,1,.793-1.258,3.317,3.317,0,0,1,1.168-.775,3.856,3.856,0,0,1,1.434-.265,5.767,5.767,0,0,1,.925.066,5.292,5.292,0,0,1,.692.155,3.456,3.456,0,0,1,.47.177,2.2,2.2,0,0,1,.25.135l-.343.9a2.964,2.964,0,0,0-.853-.349,4.252,4.252,0,0,0-1.086-.138,2.653,2.653,0,0,0-1.07.211,2.225,2.225,0,0,0-.819.61,2.9,2.9,0,0,0-.527.969,4.079,4.079,0,0,0-.187,1.279,4.594,4.594,0,0,0,.16,1.251,2.679,2.679,0,0,0,.489.97,2.2,2.2,0,0,0,.807.626,2.7,2.7,0,0,0,1.135.221,5.413,5.413,0,0,0,.793-.05,3.756,3.756,0,0,0,.47-.094V74.155Z" transform="translate(-14.719 -6.612)" fill="#015f4e"/>
  <path id="Caminho_23135" data-name="Caminho 23135" d="M218.052,75.175a3.622,3.622,0,0,1-.2,1.241,2.842,2.842,0,0,1-.56.953,2.444,2.444,0,0,1-.859.614,2.829,2.829,0,0,1-2.17,0,2.444,2.444,0,0,1-.859-.614,2.816,2.816,0,0,1-.559-.953,3.943,3.943,0,0,1,0-2.476,2.834,2.834,0,0,1,.559-.959,2.477,2.477,0,0,1,.859-.614,2.841,2.841,0,0,1,2.17,0,2.46,2.46,0,0,1,.859.614,2.832,2.832,0,0,1,.56.959,3.646,3.646,0,0,1,.2,1.235m-1.075,0a2.486,2.486,0,0,0-.437-1.546,1.532,1.532,0,0,0-2.383,0,2.951,2.951,0,0,0,0,3.092,1.53,1.53,0,0,0,2.383,0,2.482,2.482,0,0,0,.437-1.547" transform="translate(-15.155 -6.735)" fill="#015f4e"/>
  <path id="Caminho_23136" data-name="Caminho 23136" d="M219.964,71.112a.666.666,0,0,1-.471-.182.723.723,0,0,1,0-.985.7.7,0,0,1,.943,0,.723.723,0,0,1,0,.985.666.666,0,0,1-.471.182m.521,6.8h-1.031V72.153h1.031Z" transform="translate(-15.549 -6.594)" fill="#015f4e"/>
  <path id="Caminho_23137" data-name="Caminho 23137" d="M223.808,71.98a2.983,2.983,0,0,1,1.047.162,1.683,1.683,0,0,1,.686.453,1.73,1.73,0,0,1,.372.7,3.386,3.386,0,0,1,.111.891v3.6l-.373.06q-.237.039-.536.071c-.2.022-.415.042-.647.06s-.464.028-.692.028a3.823,3.823,0,0,1-.9-.1,2.011,2.011,0,0,1-.709-.315,1.444,1.444,0,0,1-.466-.571,2.019,2.019,0,0,1-.166-.852,1.648,1.648,0,0,1,.194-.82,1.564,1.564,0,0,1,.527-.554,2.436,2.436,0,0,1,.774-.31,4.28,4.28,0,0,1,.93-.1c.1,0,.212.006.323.016s.215.026.315.044l.261.051c.073.015.125.025.155.033V74.24a2.383,2.383,0,0,0-.056-.5,1.147,1.147,0,0,0-.2-.443,1.007,1.007,0,0,0-.393-.31,1.547,1.547,0,0,0-.647-.117,4.855,4.855,0,0,0-.892.072,3.1,3.1,0,0,0-.57.15l-.122-.853a3.193,3.193,0,0,1,.665-.172,5.809,5.809,0,0,1,1.008-.083m.088,5.164c.245,0,.46-.006.648-.017a2.907,2.907,0,0,0,.471-.061V75.348a1.391,1.391,0,0,0-.36-.094,4.091,4.091,0,0,0-.6-.039,3.963,3.963,0,0,0-.492.033,1.511,1.511,0,0,0-.477.138,1.02,1.02,0,0,0-.36.289.754.754,0,0,0-.144.481.826.826,0,0,0,.356.77,1.836,1.836,0,0,0,.963.217m1.419-7.2-1.562,1.518-.522-.466,1.42-1.706Z" transform="translate(-15.682 -6.566)" fill="#015f4e"/>
  <path id="Caminho_23138" data-name="Caminho 23138" d="M228.961,77.314a2.026,2.026,0,0,0,.936-.167.561.561,0,0,0,.3-.532.707.707,0,0,0-.3-.6,4.742,4.742,0,0,0-.986-.5c-.222-.088-.434-.178-.637-.271a2.252,2.252,0,0,1-.528-.326,1.364,1.364,0,0,1-.487-1.107,1.467,1.467,0,0,1,.564-1.214,2.414,2.414,0,0,1,1.542-.449,4.242,4.242,0,0,1,.487.027c.162.019.313.04.454.066s.263.054.371.084.19.055.25.077l-.188.885a2.636,2.636,0,0,0-.521-.182,3.35,3.35,0,0,0-.852-.1,1.579,1.579,0,0,0-.755.173.568.568,0,0,0-.321.536.726.726,0,0,0,.072.333.768.768,0,0,0,.221.259,1.726,1.726,0,0,0,.372.216c.148.067.325.136.531.211.273.1.517.206.731.3a2.259,2.259,0,0,1,.547.349,1.339,1.339,0,0,1,.349.482,1.737,1.737,0,0,1,.122.692,1.374,1.374,0,0,1-.593,1.208,2.95,2.95,0,0,1-1.69.409,4.42,4.42,0,0,1-1.2-.127,6.042,6.042,0,0,1-.587-.194l.187-.886c.118.045.306.111.565.2a3.273,3.273,0,0,0,1.031.133" transform="translate(-16.016 -6.735)" fill="#015f4e"/>
  <path id="Caminho_23139" data-name="Caminho 23139" d="M2.713,45.937a42.621,42.621,0,0,0,1.514,8.541,25.592,25.592,0,0,1,6.721,4.862,25.559,25.559,0,0,1,7.474,16.6,42.524,42.524,0,0,0,7.364,4.8V77.5A33.059,33.059,0,0,0,2.713,45.937" transform="translate(-2.713 -5.182)" fill="#015f4e"/>
  <path id="Caminho_23140" data-name="Caminho 23140" d="M4.388,29.494A42.643,42.643,0,0,0,2.9,36.727a40.39,40.39,0,0,1,5.883,1.982,40.723,40.723,0,0,1,12.985,8.8,40.914,40.914,0,0,1,8.757,13.046,40.938,40.938,0,0,1,3.207,15.971v6.336a42.2,42.2,0,0,0,7.352,1.348V76.523a48.392,48.392,0,0,0-36.7-47.029" transform="translate(-2.724 -4.207)" fill="#015f4e"/>
  <path id="Caminho_23141" data-name="Caminho 23141" d="M51.662,50.817a63.567,63.567,0,0,0-13.6-20.269A63.225,63.225,0,0,0,17.883,16.883a63.314,63.314,0,0,0-6.035-2.211,42.624,42.624,0,0,0-4.156,6.487A56.371,56.371,0,0,1,49.3,75.644v7.684a42.029,42.029,0,0,0,7.352-1.349V75.644a63.64,63.64,0,0,0-4.992-24.827" transform="translate(-3.008 -3.329)" fill="#015f4e"/>
  <path id="Caminho_23142" data-name="Caminho 23142" d="M49.512,18.973A78.49,78.49,0,0,0,25.842,2.614a42.531,42.531,0,0,0-7.278,4.993A71.761,71.761,0,0,1,65.232,74.929V78.17a42.521,42.521,0,0,0,7.336-4.775,78.853,78.853,0,0,0-6.178-29.27A78.86,78.86,0,0,0,49.512,18.973" transform="translate(-3.652 -2.614)" fill="#015f4e"/>
  <path id="Caminho_23143" data-name="Caminho 23143" d="M83.01,59.34a25.643,25.643,0,0,1,6.722-4.863,42.678,42.678,0,0,0,1.514-8.54A33.06,33.06,0,0,0,68.173,77.5v3.241a42.472,42.472,0,0,0,7.4-4.829A25.544,25.544,0,0,1,83.01,59.34" transform="translate(-6.593 -5.182)" fill="#36d75e"/>
  <path id="Caminho_23144" data-name="Caminho 23144" d="M59.275,76.522A41.069,41.069,0,0,1,84.224,38.707a40.38,40.38,0,0,1,5.882-1.982,42.551,42.551,0,0,0-1.488-7.233,48.394,48.394,0,0,0-36.7,47.029v7.684a42.116,42.116,0,0,0,7.352-1.348Z" transform="translate(-5.63 -4.207)" fill="#36d75e"/>
  <path id="Caminho_23145" data-name="Caminho 23145" d="M43.026,75.644A56.372,56.372,0,0,1,84.636,21.158a42.689,42.689,0,0,0-4.156-6.486A63.755,63.755,0,0,0,35.675,75.644V81.98a42.176,42.176,0,0,0,7.351,1.348V75.644Z" transform="translate(-4.667 -3.329)" fill="#36d75e"/>
  <path id="Caminho_23146" data-name="Caminho 23146" d="M26.776,74.929A71.761,71.761,0,0,1,73.444,7.607a42.494,42.494,0,0,0-7.278-4.993,79.239,79.239,0,0,0-46.752,70.76,42.492,42.492,0,0,0,7.361,4.8Z" transform="translate(-3.703 -2.614)" fill="#36d75e"/>
</svg>
